<svg width="40" height="40" viewBox="0 0 40 40" fill="none" xmlns="http://www.w3.org/2000/svg">
<path d="M18.3333 6.66664H6.66667C5.78261 6.66664 4.93477 7.01783 4.30964 7.64295C3.68452 8.26807 3.33333 9.11592 3.33333 9.99997V33.3333C3.33333 34.2174 3.68452 35.0652 4.30964 35.6903C4.93477 36.3154 5.78261 36.6666 6.66667 36.6666H30C30.8841 36.6666 31.7319 36.3154 32.357 35.6903C32.9821 35.0652 33.3333 34.2174 33.3333 33.3333V21.6666M30.8333 4.16664C31.4964 3.5036 32.3957 3.1311 33.3333 3.1311C34.271 3.1311 35.1703 3.5036 35.8333 4.16664C36.4964 4.82968 36.8689 5.72896 36.8689 6.66664C36.8689 7.60432 36.4964 8.5036 35.8333 9.16664L20 25L13.3333 26.6666L15 20L30.8333 4.16664Z" stroke="#1E1E1E" stroke-width="4" stroke-linecap="round" stroke-linejoin="round"/>
</svg>
